<?xml version="1.0" encoding="UTF-8"?>
<svg width="231px" height="50px" viewBox="0 0 231 50" version="1.1" xmlns="http://www.w3.org/2000/svg" xmlns:xlink="http://www.w3.org/1999/xlink">
    <!-- Generator: Sketch 47.1 (45422) - http://www.bohemiancoding.com/sketch -->
    <title>Logo</title>
    <desc>Created with Sketch.</desc>
    <defs>
        <polygon id="path-1" points="0 0.395560727 230.729486 0.395560727 230.729486 49.4450907 0 49.4450907"></polygon>
    </defs>
    <g id="Page-2" stroke="none" stroke-width="1" fill="none" fill-rule="evenodd" opacity="0.287194293">
        <g id="Haber7---Ana-Sayfa-Alternatif-Copy-5" transform="translate(-176.000000, -5006.000000)">
            <g id="Footer" transform="translate(0.000000, 4898.000000)">
                <g id="Logo" transform="translate(176.000000, 107.000000)">
                    <g id="Group-3">
                        <g id="Fill-1-Clipped">
                            <g>
                                <mask id="mask-2" fill="white">
                                    <use xlink:href="#path-1"></use>
                                </mask>
                                <g id="path-1"></g>
                                <path d="M14.0279093,38.8502548 L20.1593962,38.8502548 L20.1593962,24.6500546 C20.1593962,23.6246064 19.6982645,20.9885381 18.9874619,19.4578901 C18.2579882,17.9225127 16.4429882,15.9520182 13.895475,15.551298 C11.3310276,15.1385389 9.94111975,15.3874842 8.82085658,15.7133919 C7.71926447,16.0504784 6.73968552,16.7723768 6.08142238,17.3627081 L6.08142238,6.80983589 L-0.000130263158,9.89048004 L-0.000130263158,38.8502548 L6.08142238,38.8502548 L6.08142238,26.0624645 C6.08142238,24.232996 6.585975,22.1391039 8.32802763,21.3574415 C10.0557513,20.5757791 12.0105671,21.1962076 12.7183303,21.8888688 C13.4300013,22.5836799 14.0279093,23.6594329 14.0279093,25.9859319 L14.0279093,38.8502548 Z" id="Fill-1" fill="#FFFFFF" fill-rule="nonzero" mask="url(#mask-2)"></path>
                            </g>
                        </g>
                    </g>
                    <path d="M28.6548113,29.7527532 C28.8501307,28.7687213 29.7916477,28.0975588 30.4910726,27.8929413 C31.1939622,27.7027575 32.4680849,27.6743148 33.879061,27.8207733 C35.2549576,27.957468 36.3775022,28.6672616 36.3775022,28.6672616 L36.3775022,31.5004924 C36.3775022,31.5004924 36.1024961,32.0082156 35.4368514,32.5919273 C34.7764037,33.160781 33.879061,33.3747379 33.5191711,33.4778957 C33.1792031,33.5742612 32.533913,33.5742612 31.2498295,33.5742612 C29.9770061,33.5742612 29.1134437,32.6033894 28.8782809,32.1606174 C28.6210311,31.6881292 28.4629568,30.7291439 28.6548113,29.7527532 M33.9938273,38.1908908 C35.2549576,37.8313243 36.3775022,36.6532877 36.3775022,36.6532877 L36.3775022,38.1908908 L42.4540541,38.1908908 L42.4540541,22.5045386 C42.4540541,20.8234488 41.7697869,18.4758661 39.8464767,17.0036389 C37.9279303,15.5390529 35.6992982,14.9837838 33.0540428,14.9837838 C30.4352053,14.9837838 27.0567446,15.6961245 24.3460939,17.2545287 C25.5006863,19.3652305 26.6591767,21.4589516 26.6591767,21.4589516 C26.6591767,21.4589516 28.8180827,20.3505361 31.2498295,20.0096483 C33.6815763,19.6547516 35.004637,20.1140797 35.6992982,20.9193897 C36.3818331,21.7217282 36.3268318,22.7257123 36.4147471,23.9203051 C35.004637,23.4049407 33.9396923,23.0462232 31.9276004,23.0462232 C29.9453912,23.0462232 27.6370723,23.1213628 24.971029,25.0329659 C22.2980564,26.948814 22.4782179,30.5937227 22.4782179,30.5937227 C22.4782179,30.5937227 22.2863633,35.1381842 26.0840458,37.3936466 C29.8999178,39.649109 33.5403921,38.353481 33.9938273,38.1908908" id="Fill-4" fill="#FFFFFF" fill-rule="nonzero"></path>
                    <path d="M50.0467108,31.0725231 L50.0467108,22.3827471 C51.487684,20.6864274 52.8096579,20.4198751 53.7434775,20.4198751 C54.6612867,20.4198751 55.9391226,20.6486552 56.8521716,22.2569826 C57.7903186,23.8807624 57.7903186,25.7663729 57.7903186,27.9618881 C57.7903186,30.1488186 56.9932398,32.9976227 54.082301,32.9976227 C51.1735258,32.9976227 50.0467108,31.0725231 50.0467108,31.0725231 L50.0467108,31.0725231 Z M55.671266,38.7081081 C57.9660048,38.7081081 60.3291143,37.1972159 61.2914939,35.8726101 C62.2408918,34.5638856 63.2024059,32.8993289 63.5676256,30.8682092 C63.9549142,28.8242125 63.9293833,27.3116035 63.9293833,26.9862466 C63.9293833,26.6707621 63.8666384,23.7798932 63.356456,21.8492135 C62.8298299,19.9120953 61.7125349,17.4259909 59.6847872,16.0975219 C57.6691557,14.7754914 55.7768507,14.7334267 54.9235178,14.7334267 C54.082301,14.7334267 52.061477,14.8454559 50.0341619,16.6550926 L50.0341619,6.24324324 L43.9513514,9.31524743 L43.9513514,38.2089128 L50.0467108,38.2089128 L50.0467108,36.8984715 C50.0467108,36.8984715 52.0030589,38.7081081 54.4380008,38.7081081 L55.671266,38.7081081 Z" id="Fill-6" fill="#FFFFFF" fill-rule="nonzero"></path>
                    <path d="M75.2115406,20.1837291 C78.998195,20.1837291 79.2670595,24.2704411 79.2670595,24.2704411 L71.1443131,24.2704411 C71.1443131,24.2704411 71.4079737,20.1837291 75.2115406,20.1837291 M70.7223691,37.5167174 C73.1746745,38.6437351 76.239731,39.133835 79.0476313,38.2622634 C81.839053,37.3894189 84.2952613,34.990263 84.2952613,34.990263 L79.9951622,31.4730005 C79.9951622,31.4730005 78.8511867,33.0510797 76.0879524,33.0510797 C73.3186471,33.0510797 71.483863,31.588418 71.2093609,28.790393 L85.1066252,28.790393 C85.1066252,28.790393 85.2584035,26.4531892 85.0337715,24.2381921 C84.8104405,22.0299844 83.1916155,18.0480816 80.4093005,16.3758012 C77.6196134,14.7162508 74.2579385,14.5600977 71.3307836,15.8029572 C68.4036287,17.0560006 66.2631196,20.3169685 65.7110798,22.4700135 C65.1707488,24.6234827 64.9396119,27.9739842 65.5085641,30.7444276 C66.0827202,33.522085 68.2713647,36.4138866 70.7223691,37.5167174" id="Fill-8" fill="#FFFFFF" fill-rule="nonzero"></path>
                    <path d="M97.8233968,14.9837838 C94.5643721,14.9837838 92.6827009,17.1406588 92.6827009,17.1406588 L92.6827009,15.4770563 L86.1567568,15.4770563 L86.1567568,38.7081081 L92.7198514,38.7081081 L92.7198514,26.2150514 C92.7198514,24.4955332 92.8587013,23.1128099 93.9267772,22.053011 C94.9874231,20.9802083 96.6043971,21.1158799 96.8746667,21.1158799 C97.1258967,21.1158799 99.0015309,21.0395917 100.706738,22.599165 C101.163688,20.8046588 102.389189,16.6595231 102.389189,16.6595231 C102.389189,16.6595231 101.088458,14.9837838 97.8233968,14.9837838" id="Fill-10" fill="#FFFFFF" fill-rule="nonzero"></path>
                    <path d="M165.028847,20.7687215 C168.36635,20.7687215 170.430423,23.5950804 170.629327,23.9900395 C170.99368,23.6418463 174.810811,19.994959 174.810811,19.994959 C174.810811,19.994959 172.032948,14.9837838 165.233629,14.9837838 C158.439732,14.9837838 153.583784,19.8550865 153.583784,26.8304281 C153.583784,33.8257515 158.477704,38.7081081 164.999917,38.7081081 C171.525293,38.7081081 174.810811,33.6425143 174.810811,33.6425143 L170.834106,30.0224111 C170.834106,30.0224111 168.599159,33.0111751 165.073149,33.0111751 C161.558894,33.0111751 160.042258,29.8451259 160.042258,26.7436987 C160.042258,23.6418463 161.712592,20.7687215 165.028847,20.7687215" id="Fill-12" fill="#FFFFFF" fill-rule="nonzero"></path>
                    <path d="M185.428706,33.0002238 C182.786611,33.0002238 181.0556,30.6343385 181.0556,26.8450957 C181.0556,23.0690321 182.476783,20.7562889 185.428706,20.7562889 C188.377562,20.7562889 189.80488,23.4116922 189.80488,26.743488 C189.80488,30.0859121 188.482736,33.0002238 185.428706,33.0002238 M185.40285,14.9837838 C179.423629,14.9837838 174.810811,19.630102 174.810811,26.8450957 C174.810811,34.0724183 179.367096,38.7081081 185.507587,38.7081081 C189.771575,38.7081081 196.037838,36.3622041 196.037838,26.8450957 C196.037838,21.6898889 193.813377,14.9837838 185.40285,14.9837838" id="Fill-14" fill="#FFFFFF" fill-rule="nonzero"></path>
                    <path d="M222.907803,14.9837838 C218.810703,14.9837838 215.713329,17.9386968 215.713329,17.9386968 C215.713329,17.9386968 213.78456,14.9946283 209.516465,14.9946283 C206.008112,14.9946283 204.469581,17.0902221 204.469581,17.0902221 L204.469581,15.4704856 L198.535135,15.4704856 L198.535135,38.7081081 L204.469581,38.7081081 L204.469581,26.0538628 C204.469581,23.7027723 204.805222,20.7305081 207.989787,20.7305081 C211.200592,20.7305081 211.790609,22.9744549 211.790609,26.3483997 L211.790609,38.7081081 L217.741985,38.7081081 L217.741985,25.2630808 C217.741985,22.4187819 218.992702,20.7305081 221.396786,20.7305081 C223.803832,20.7305081 225.038043,21.9511665 225.038043,26.2056859 L225.038043,38.7081081 L231,38.7081081 L231,24.6635962 C231,17.4632733 226.998978,14.9837838 222.907803,14.9837838" id="Fill-16" fill="#FFFFFF" fill-rule="nonzero"></path>
                    <g id="Group-20" transform="translate(103.000000, 1.248649)" fill-rule="nonzero" fill="#FFFFFF">
                        <g id="Fill-18-Clipped">
                            <g id="Combined-Shape">
                                <path d="M24.90978,0.395732709 C38.5882802,0.395732709 49.6767145,11.3768424 49.6767145,24.9204978 C49.6767145,38.465013 38.5882802,49.4452627 24.90978,49.4452627 C11.2321486,49.4452627 0.143714244,38.465013 0.143714244,24.9204978 C0.143714244,11.3768424 11.2321486,0.395732709 24.90978,0.395732709 Z M38.0972973,15.1691157 L38.0972973,8.74054054 L11.8756757,8.74054054 L11.8756757,15.0462952 L29.8113776,15.0462952 C23.3980791,21.4366964 19.5173483,29.7299858 19.2176578,39.4012717 C19.1983659,40.0050009 19.185356,40.6074853 19.2176578,41.2045757 L19.2647648,41.2054054 L19.2656623,41.2054054 L23.6856563,41.2054054 L26.7166634,41.2054054 L26.7233932,41.1888082 C26.7193551,40.9697228 26.7166634,40.7502227 26.7166634,40.5294778 C26.7166634,30.6220945 31.0662214,21.6532922 38.0963997,15.1703606 L38.0972973,15.1691157 Z"></path>
                            </g>
                        </g>
                    </g>
                </g>
            </g>
        </g>
    </g>
</svg>