<?xml version="1.0" encoding="UTF-8"?>
<svg width="180px" height="39px" viewBox="0 0 180 39" version="1.1" xmlns="http://www.w3.org/2000/svg" xmlns:xlink="http://www.w3.org/1999/xlink">
    <!-- Generator: Sketch 47.1 (45422) - http://www.bohemiancoding.com/sketch -->
    <title>Logo</title>
    <desc>Created with Sketch.</desc>
    <defs>
        <polygon id="path-1" points="0 0.308871282 179.78921 0.308871282 179.78921 38.6089101 0 38.6089101"></polygon>
        <polyline id="path-3" points="0 0.308871282 179.78921 0.308871282 179.78921 38.6089101 0 38.6089101"></polyline>
    </defs>
    <g id="Page-2" stroke="none" stroke-width="1" fill="none" fill-rule="evenodd">
        <g id="Haber7---Ana-Sayfa-Alternatif-Copy-5" transform="translate(-147.000000, -19.000000)">
            <g id="HEADER" transform="translate(-3.000000, 0.000000)">
                <g id="Logo" transform="translate(150.000000, 18.000000)">
                    <g id="Group-3">
                        <g id="Fill-1-Clipped">
                            <g>
                                <mask id="mask-2" fill="white">
                                    <use xlink:href="#path-1"></use>
                                </mask>
                                <g id="path-1"></g>
                                <path d="M10.9308384,30.3359944 L15.7086204,30.3359944 L15.7086204,19.2478511 C15.7086204,18.4471358 15.349297,16.3887773 14.7954248,15.1935798 C14.2270038,13.9946893 12.8127181,12.4560402 10.8276428,12.1431402 C8.82937215,11.8208397 7.74632708,12.0152271 6.87339474,12.2697102 C6.01501128,12.5329222 5.251703,13.0966124 4.73877068,13.5575692 L4.73877068,5.31742056 L-0.000101503759,7.72292354 L-0.000101503759,30.3359944 L4.73877068,30.3359944 L4.73877068,20.3507231 C4.73877068,18.9221933 5.13192857,17.2871899 6.48937218,16.6768334 C7.83565038,16.0664769 9.35888346,16.5509349 9.91038723,17.0917953 C10.4649361,17.6343344 10.9308384,18.4743299 10.9308384,20.2909631 L10.9308384,30.3359944 Z" id="Fill-1" fill="#404041" fill-rule="nonzero" mask="url(#mask-2)"></path>
                            </g>
                        </g>
                    </g>
                    <path d="M21.9486584,23.8279625 C22.105083,23.039885 22.8591118,22.5023739 23.4192572,22.3385028 C23.9821775,22.186191 25.0025788,22.1634123 26.1325813,22.2807059 C27.2344898,22.39018 28.1334974,22.9586294 28.1334974,22.9586294 L28.1334974,25.227667 C28.1334974,25.227667 27.9132545,25.6342852 27.3801624,26.10176 C26.8512324,26.5573354 26.1325813,26.7286862 25.8443578,26.8113018 C25.572089,26.8884776 25.0552983,26.8884776 24.0269197,26.8884776 C23.007559,26.8884776 22.3159614,26.1109395 22.1276276,25.7563386 C21.921605,25.377939 21.7950087,24.6099204 21.9486584,23.8279625 M26.2244937,30.5857783 C27.2344898,30.2978138 28.1334974,29.3543646 28.1334974,29.3543646 L28.1334974,30.5857783 L33,30.5857783 L33,18.0231154 C33,16.676788 32.4519939,14.7966893 30.9116805,13.6176329 C29.3751823,12.4446961 27.590347,12 25.4718525,12 C23.374515,12 20.6688214,12.5704893 18.497954,13.8185619 C19.4226276,15.5089509 20.3504229,17.1857405 20.3504229,17.1857405 C20.3504229,17.1857405 22.0794169,16.2980484 24.0269197,16.025043 C25.9744226,15.7408184 27.0340167,16.1086786 27.590347,16.7536238 C28.1369659,17.3961893 28.0929172,18.2002457 28.1633256,19.1569543 C27.0340167,18.7442166 26.1811389,18.456932 24.5697233,18.456932 C22.9822397,18.456932 21.1335861,18.5171088 18.9984431,20.0480463 C16.8577508,21.5823835 17.002036,24.5014663 17.002036,24.5014663 C17.002036,24.5014663 16.8483862,28.1409701 19.8898202,29.9472927 C22.9458216,31.7536154 25.861353,30.7159913 26.2244937,30.5857783" id="Fill-4" fill="#404041" fill-rule="nonzero"></path>
                    <path d="M38.8815649,24.8849211 L38.8815649,17.9255767 C40.0355911,16.5670523 41.0943148,16.3535797 41.842179,16.3535797 C42.5772209,16.3535797 43.600596,16.5368018 44.3318257,17.8248562 C45.0831556,19.1252859 45.0831556,20.6354069 45.0831556,22.3937199 C45.0831556,24.1451577 44.4448024,26.4266675 42.1135311,26.4266675 C39.7839925,26.4266675 38.8815649,24.8849211 38.8815649,24.8849211 L38.8815649,24.8849211 Z M43.3860788,31 C45.2238567,31 47.1163902,29.7899781 47.8871271,28.7291466 C48.6474675,27.6810339 49.4175112,26.3479474 49.7100032,24.7212931 C50.0201694,23.084326 49.9997226,21.8729292 49.9997226,21.612362 C49.9997226,21.3597012 49.9494723,19.0445032 49.5408846,17.4982879 C49.1191279,15.9469161 48.2243245,13.9558801 46.6003707,12.8919548 C44.9861203,11.8331857 43.470638,11.7994976 42.7872328,11.7994976 C42.1135311,11.7994976 40.4951222,11.8892179 38.871515,13.3384941 L38.871515,5 L34,7.46026309 L34,30.6002116 L38.8815649,30.6002116 L38.8815649,29.5507239 C38.8815649,29.5507239 40.4483372,31 42.3983989,31 L43.3860788,31 Z" id="Fill-6" fill="#404041" fill-rule="nonzero"></path>
                    <path d="M59.0352165,16.1644584 C62.0678185,16.1644584 62.2831429,19.4373663 62.2831429,19.4373663 L55.7779131,19.4373663 C55.7779131,19.4373663 55.9890699,16.1644584 59.0352165,16.1644584 M55.4399925,30.0458559 C57.4039601,30.9484459 59.858659,31.3409501 62.1074104,30.6429383 C64.3429645,29.9439069 66.3100577,28.022505 66.3100577,28.022505 L62.8662554,25.2056498 C62.8662554,25.2056498 61.9500846,26.4694795 59.7371048,26.4694795 C57.5192628,26.4694795 56.049847,25.2980836 55.8300076,23.0572412 L66.9598514,23.0572412 C66.9598514,23.0572412 67.0814054,21.1854545 66.9015053,19.4115391 C66.7226471,17.6430611 65.4261855,14.4540913 63.1979246,13.1148192 C60.9637596,11.785742 58.2715092,11.6606843 55.9272509,12.656048 C53.5829927,13.6595676 51.8687321,16.2711652 51.4266223,17.9954653 C50.9938897,19.7201052 50.8087801,22.4034072 51.2644345,24.6221607 C51.7242565,26.8466914 53.477067,29.1626365 55.4399925,30.0458559" id="Fill-8" fill="#404041" fill-rule="nonzero"></path>
                    <path d="M76.6246889,12 C74.2154199,12 72.8243743,13.6364533 72.8243743,13.6364533 L72.8243743,12.3742532 L68,12.3742532 L68,30 L72.8518382,30 L72.8518382,20.5213309 C72.8518382,19.2167067 72.9544845,18.1676138 73.7440711,17.3635285 C74.5281649,16.549577 75.7235304,16.6525131 75.92333,16.6525131 C76.1090545,16.6525131 77.4956372,16.5946321 78.7562296,17.7779038 C79.0940353,16.416385 80,13.2714085 80,13.2714085 C80,13.2714085 79.0384207,12 76.6246889,12" id="Fill-10" fill="#404041" fill-rule="nonzero"></path>
                    <path d="M128.626786,16.6329588 C131.142449,16.6329588 132.698257,18.896493 132.848181,19.2128022 C133.122815,18.9339462 136,16.0132788 136,16.0132788 C136,16.0132788 133.906169,12 128.781141,12 C123.6602,12 120,15.9012598 120,21.4875723 C120,27.0898876 123.688822,31 128.604979,31 C133.523521,31 136,26.9431392 136,26.9431392 L133.002534,24.0439223 C133.002534,24.0439223 131.31793,26.4375212 128.660178,26.4375212 C126.011288,26.4375212 124.868114,23.9019407 124.868114,21.4181137 C124.868114,18.9339462 126.127138,16.6329588 128.626786,16.6329588" id="Fill-12" fill="#404041" fill-rule="nonzero"></path>
                    <path d="M144.003302,26.4287507 C142.011808,26.4287507 140.707048,24.533994 140.707048,21.4993191 C140.707048,18.4751988 141.778273,16.623002 144.003302,16.623002 C146.226021,16.623002 147.30187,18.7496237 147.30187,21.4179449 C147.30187,24.0947781 146.305297,26.4287507 144.003302,26.4287507 M143.983814,12 C139.476939,12 136,15.7210774 136,21.4993191 C136,27.2874346 139.434328,31 144.06276,31 C147.276766,31 152,29.1212457 152,21.4993191 C152,17.3706902 150.323299,12 143.983814,12" id="Fill-14" fill="#404041" fill-rule="nonzero"></path>
                    <path d="M173.519236,12 C170.238009,12 167.757428,14.2419368 167.757428,14.2419368 C167.757428,14.2419368 166.212742,12.0082279 162.794572,12.0082279 C159.984851,12.0082279 158.752695,13.5981862 158.752695,13.5981862 L158.752695,12.3692679 L154,12.3692679 L154,30 L158.752695,30 L158.752695,20.3990347 C158.752695,18.6152271 159.021498,16.3601258 161.571907,16.3601258 C164.143331,16.3601258 164.615855,18.0626418 164.615855,20.6225042 L164.615855,30 L169.382109,30 L169.382109,19.7990565 C169.382109,17.6410444 170.383766,16.3601258 172.309115,16.3601258 C174.236835,16.3601258 175.225272,17.2862576 175.225272,20.5142251 L175.225272,30 L180,30 L180,19.3442186 C180,13.8812258 176.795718,12 173.519236,12" id="Fill-16" fill="#404041" fill-rule="nonzero"></path>
                    <g id="Group-20" transform="translate(0.000000, 1.000000)">
                        <g id="Fill-18-Clipped">
                            <g>
                                <mask id="mask-4" fill="white">
                                    <use xlink:href="#path-3"></use>
                                </mask>
                                <g id="path-3"></g>
                                <path d="M99.6699585,0.309005573 C89.0120638,0.309005573 80.3717254,8.8835409 80.3717254,19.4590251 C80.3717254,30.0351806 89.0120638,38.6090444 99.6699585,38.6090444 C110.32853,38.6090444 118.968868,30.0351806 118.968868,19.4590251 C118.968868,8.8835409 110.32853,0.309005573 99.6699585,0.309005573" id="Fill-18" fill="#DA2027" fill-rule="nonzero" mask="url(#mask-4)"></path>
                            </g>
                        </g>
                    </g>
                    <path d="M110,13.148426 L109.999315,13.149423 C104.637192,18.3413812 101.319657,25.5241882 101.319657,33.4586727 C101.319657,33.6354597 101.32171,33.8112499 101.32479,33.9867078 L101.319657,34 L99.0078186,34 L95.6365596,34 L95.635875,34 L95.5999452,33.9993355 C95.5753076,33.5211462 95.5852306,33.0386371 95.5999452,32.555131 C95.8285279,24.8097289 98.7884751,18.1679171 103.680086,13.0500633 L90,13.0500633 L90,8 L110,8 L110,13.148426 Z" id="Fill-21" fill="#FEFEFE" fill-rule="nonzero"></path>
                </g>
            </g>
        </g>
    </g>
</svg>